<?xml version="1.0" standalone="no"?><!DOCTYPE svg PUBLIC "-//W3C//DTD SVG 20010904//EN" "http://www.w3.org/TR/2001/REC-SVG-20010904/DTD/svg10.dtd"><svg xmlns="http://www.w3.org/2000/svg" version="1.0" width="96.000000pt" height="103.000000pt" viewBox="0 0 96.000000 103.000000" preserveAspectRatio="xMidYMid meet">

<g transform="translate(0.000000,103.000000) scale(0.100000,-0.100000)" fill="#0077b6" stroke="none">
<path d="M644 999 c-49 -14 -103 -77 -174 -203 l-65 -115 -56 -1 -56 0 -27 -50 -27 -50 50 0 c28 0 51 -2 51 -4 0 -2 -69 -125 -154 -272 -85 -148 -154 -269 -153 -270 1 0 26 2 55 5 l53 6 153 265 c137 238 156 265 181 268 36 5 40 13 -100 -228 -63 -110 -115 -202 -115 -205 0 -3 83 -5 185 -5 l185 0 30 53 30 52 -145 3 c-80 1 -145 4 -145 6 0 3 54 98 120 213 l120 208 -65 5 -65 5 54 93 c29 51 62 99 72 107 19 15 184 22 184 8 0 -3 -38 -73 -85 -154 -47 -81 -85 -149 -85 -153 0 -13 35 -5 74 18 49 29 70 56 147 190 l58 101 -49 3 c-28 2 -50 6 -50 10 0 4 12 25 25 47 14 22 25 43 25 48 0 10 -198 7 -236 -4z"/>
</g>
</svg>